HIERARCHY
ROOT Hips
{
    OFFSET 0.000000 0.000000 0.000000
    CHANNELS 6 Xposition Yposition Zposition Zrotation Xrotation Yrotation
    JOINT Spine
    {
        OFFSET -0.000000 7.181133 0.000000
        CHANNELS 3 Zrotation Xrotation Yrotation
        JOINT Spine1
        {
            OFFSET -0.000000 18.267374 0.000000
            CHANNELS 3 Zrotation Xrotation Yrotation
            JOINT Neck
            {
                OFFSET -0.000000 20.018869 0.000000
                CHANNELS 3 Zrotation Xrotation Yrotation
                JOINT Head
                {
                    OFFSET -0.000000 13.574094 1.751496
                    CHANNELS 3 Zrotation Xrotation Yrotation
                    End Site
                    {
                        OFFSET -0.000000 17.514959 0.000000
                    }
                }
            }
            JOINT LeftShoulder
            {
                OFFSET 3.455033 15.625459 -0.068584
                CHANNELS 3 Zrotation Xrotation Yrotation
                JOINT LeftArm
                {
                    OFFSET 13.322371 0.000000 0.000000
                    CHANNELS 3 Zrotation Xrotation Yrotation
                    JOINT LeftForeArm
                    {
                        OFFSET 25.999905 0.000000 0.000000
                        CHANNELS 3 Zrotation Xrotation Yrotation
                        JOINT LeftHand
                        {
                            OFFSET 21.760029 0.000000 0.000000
                            CHANNELS 3 Zrotation Xrotation Yrotation
                            End Site
                            {
                                OFFSET 13.136220 0.000000 0.000000
                            }
                        }
                    }
                }
            }
            JOINT RightShoulder
            {
                OFFSET -3.548261 15.625459 -0.068584
                CHANNELS 3 Zrotation Xrotation Yrotation
                JOINT RightArm
                {
                    OFFSET -13.322371 0.000000 0.000000
                    CHANNELS 3 Zrotation Xrotation Yrotation
                    JOINT RightForeArm
                    {
                        OFFSET -25.999905 0.000000 0.000000
                        CHANNELS 3 Zrotation Xrotation Yrotation
                        JOINT RightHand
                        {
                            OFFSET -21.760029 0.000000 0.000000
                            CHANNELS 3 Zrotation Xrotation Yrotation
                            End Site
                            {
                                OFFSET -13.136220 0.000000 0.000000
                            }
                        }
                    }
                }
            }
        }
    }
    JOINT LeftUpLeg
    {
        OFFSET 8.757480 0.000000 0.000000
        CHANNELS 3 Zrotation Xrotation Yrotation
        JOINT LeftLeg
        {
            OFFSET -0.000000 -43.045837 0.000000
            CHANNELS 3 Zrotation Xrotation Yrotation
            JOINT LeftFoot
            {
                OFFSET -0.000000 -33.977207 0.000000
                CHANNELS 3 Zrotation Xrotation Yrotation
                JOINT LeftToeBase
                {
                    OFFSET -0.000000 -5.692361 13.136220
                    CHANNELS 3 Zrotation Xrotation Yrotation
                    End Site
                    {
                        OFFSET -0.000000 0.000000 3.502991
                    }
                }
            }
        }
    }
    JOINT RightUpLeg
    {
        OFFSET -8.757480 0.000000 0.000000
        CHANNELS 3 Zrotation Xrotation Yrotation
        JOINT RightLeg
        {
            OFFSET -0.000000 -43.045837 0.000000
            CHANNELS 3 Zrotation Xrotation Yrotation
            JOINT RightFoot
            {
                OFFSET -0.000000 -33.977207 0.000000
                CHANNELS 3 Zrotation Xrotation Yrotation
                JOINT RightToeBase
                {
                    OFFSET -0.000000 -5.692361 13.136220
                    CHANNELS 3 Zrotation Xrotation Yrotation
                    End Site
                    {
                        OFFSET -0.000000 0.000000 3.502991
                    }
                }
            }
        }
    }
}
MOTION
Frames:    11
Frame Time:    0.008333
-64.248520    83.257553    5.154958    -4.143240    0.663585    -59.329079    1.489403    4.883671    -3.025235    2.322765    6.413886    -1.111318    -2.261915    -4.043448    26.691555    -3.171365    -0.402750    27.687450    1.435054    0.318871    -4.584456    -53.542080    18.110813    -48.213470    -7.695447    3.090237    -5.586609    3.330819    2.424534    -9.954170    -2.525612    9.233672    -4.838531    71.778946    23.399820    17.810562    9.219520    3.168410    -7.464140    21.120026    4.039380    1.447653    2.168167    6.984791    -5.432184    -4.493798    7.637335    -10.595142    9.623013    -12.699812    10.620959    0.000000    0.000000    0.000000    -10.035283    -15.542843    -0.158568    13.522258    28.270241    -12.161196    -3.001261    -17.165571    -8.528092    0.000000    0.000000    0.000000    
-63.878990    83.322731    5.106902    -4.169245    0.703639    -59.438217    1.432548    4.871622    -3.104381    2.273815    6.342490    -1.134412    -2.250365    -4.125193    26.685120    -3.051813    -0.291771    27.673056    1.519001    0.233423    -4.540648    -53.458664    17.677967    -48.060711    -7.864032    3.243604    -5.622855    3.134470    2.584251    -9.958358    -2.534392    9.303689    -4.872817    72.018280    23.311741    17.612951    9.149514    3.337123    -7.582306    21.230892    4.190523    1.320667    2.166453    6.983278    -5.161073    -4.577537    7.122219    -10.983279    9.498104    -12.104520    10.750459    0.000000    0.000000    0.000000    -10.016423    -15.912627    -0.108006    14.633034    30.998287    -14.508558    -2.638896    -17.988010    -6.585841    0.000000    0.000000    0.000000    
-63.530945    83.377792    5.045771    -4.226209    0.865912    -59.602524    1.464338    4.808996    -3.121043    2.259023    6.262765    -1.137481    -2.216165    -4.094450    26.718960    -3.018399    -0.292150    27.706745    1.587818    0.130106    -4.603393    -53.286434    17.423773    -47.801315    -7.860126    3.310702    -5.688668    2.857276    2.672292    -9.914079    -2.477683    9.334468    -4.972041    72.080246    23.164501    17.531666    9.325977    3.513795    -7.887695    21.440010    4.363136    1.092505    2.315409    7.268907    -7.197733    -4.870779    5.723570    -9.259987    9.787649    -11.314146    11.077605    0.000000    0.000000    0.000000    -9.850636    -16.288530    0.007956    15.841928    33.597725    -16.753183    -2.401554    -18.640278    -4.946133    0.000000    0.000000    0.000000    
-63.207375    83.417442    5.009494    -4.290726    0.868975    -59.706669    1.321043    4.741079    -3.154678    2.318809    6.315476    -1.155331    -2.282846    -4.102896    26.737785    -2.903994    -0.366428    27.705183    1.637624    0.073380    -4.615076    -53.213310    17.009903    -47.685863    -8.029704    3.458204    -5.539702    2.880575    2.818764    -9.957882    -2.458401    9.339154    -4.980574    72.208405    23.139235    17.309931    9.162495    3.487407    -7.971789    21.720385    4.304356    0.932382    2.304734    7.390255    -7.097457    -4.920430    5.084146    -8.967192    9.673517    -10.841850    10.656172    0.000000    0.000000    0.000000    -9.855069    -16.466551    0.027592    17.170816    36.058136    -19.404594    -1.989472    -19.332016    -2.998327    0.000000    0.000000    0.000000    
-62.861206    83.459038    4.951054    -4.298688    0.969204    -59.799759    1.332727    4.658166    -3.225039    2.259052    6.263673    -1.174716    -2.346350    -4.109622    26.734577    -2.814692    -0.432421    27.684359    1.648766    0.036838    -4.616924    -52.917168    16.804720    -47.511040    -8.064206    3.449682    -5.523754    2.853262    2.812545    -9.939368    -2.454342    9.368985    -5.020816    72.362289    23.098879    17.202887    9.071261    3.473776    -8.187055    21.816130    4.311897    0.982494    2.346370    7.319421    -6.793595    -4.953935    4.635165    -9.134565    9.652941    -10.400947    10.518215    0.000000    0.000000    0.000000    -9.776998    -16.700397    0.030391    18.611303    38.501709    -21.981304    -2.173843    -19.774593    -1.711721    0.000000    0.000000    0.000000    
-62.508583    83.492081    4.894304    -4.256489    1.084699    -59.973087    1.260630    4.519567    -3.195119    2.299079    6.207292    -1.167472    -2.262924    -4.090825    26.708736    -2.924843    -0.383496    27.678917    1.663069    0.016279    -4.677553    -52.858860    16.462311    -47.254890    -8.117592    3.539129    -5.454059    2.893631    2.898926    -10.016019    -2.411395    9.314877    -5.096443    72.380341    23.179159    17.063828    8.968644    3.367161    -8.377943    22.022074    4.193205    0.870935    2.360401    7.230929    -6.653255    -4.999692    4.098004    -9.033655    9.634076    -9.948541    10.347250    0.000000    0.000000    0.000000    -9.704288    -17.019497    0.093776    20.170490    40.847652    -25.041254    -1.668057    -20.233965    0.245223    0.000000    0.000000    0.000000    
-62.183086    83.532021    4.859704    -4.301947    1.034845    -60.027821    1.140851    4.530134    -3.275349    2.252086    6.147706    -1.192005    -2.160294    -4.041785    26.725193    -3.039990    -0.424005    27.716618    1.747811    -0.004539    -4.663811    -52.596428    16.586872    -47.095562    -7.874553    3.366012    -5.369359    2.954374    2.736403    -10.072018    -2.384630    9.357076    -5.088786    72.434822    23.039518    16.996580    8.886635    3.296333    -8.578993    22.280239    4.127339    0.836283    2.275854    7.064993    -4.510085    -4.918342    4.358050    -10.353007    9.489548    -9.842223    9.557571    0.000000    0.000000    0.000000    -9.751268    -17.028597    0.033260    21.728823    43.013096    -27.910963    -1.053367    -20.670671    2.110530    0.000000    0.000000    0.000000    
-61.852051    83.559128    4.806151    -4.326891    1.102174    -60.180706    1.085034    4.451223    -3.251151    2.280956    6.114779    -1.185912    -2.239084    -4.091001    26.713507    -2.921221    -0.390712    27.685535    1.727932    0.051674    -4.734862    -52.412994    16.348505    -46.889122    -7.867023    3.342450    -5.259893    2.952125    2.721244    -10.058452    -2.338863    9.373188    -5.128170    72.400887    23.136955    16.997644    8.758367    3.122828    -8.830805    22.142946    4.012101    1.089620    2.312785    7.277262    -6.378080    -5.065770    3.220821    -8.498229    9.421928    -9.206929    9.502912    0.000000    0.000000    0.000000    -9.663057    -17.161926    -0.076930    23.299261    45.355946    -30.625511    0.274962    -21.090763    4.251671    0.000000    0.000000    0.000000    
-61.515110    83.584801    4.749136    -4.349496    1.184848    -60.353539    1.099902    4.406488    -3.219774    2.220665    6.047733    -1.170887    -2.246807    -4.216492    26.707386    -2.859129    -0.288718    27.676502    1.792560    -0.025814    -4.751713    -52.384995    16.188858    -46.583050    -7.905620    3.348607    -5.045619    3.354388    2.704388    -10.083189    -2.376218    9.304307    -5.142677    72.521088    23.172680    16.886280    8.611920    3.092082    -9.026760    22.316586    3.962345    0.966538    2.347253    6.977157    -4.146576    -5.066986    3.559083    -10.509338    9.498337    -9.070101    9.416755    0.000000    0.000000    0.000000    -9.555019    -17.232203    -0.031762    25.088383    47.336231    -33.569897    0.952172    -21.236765    5.875172    0.000000    0.000000    0.000000    
-61.190998    83.607864    4.684541    -4.375559    1.249862    -60.523308    1.032047    4.379009    -3.195423    2.242418    5.928267    -1.162681    -2.195330    -4.050488    26.678516    -3.060159    -0.446905    27.667109    1.758189    0.000073    -4.723315    -52.203621    16.231546    -46.317566    -7.739820    3.248924    -4.892478    3.436996    2.613177    -10.145732    -2.336605    9.318769    -5.051245    72.495209    23.130421    16.826729    8.451661    2.965962    -9.198751    22.273247    3.847922    1.027058    2.372560    6.900586    -4.067504    -5.174917    3.149651    -10.621129    9.513756    -8.624510    9.528448    0.000000    0.000000    0.000000    -9.416623    -17.264727    -0.019700    26.902653    49.283119    -36.753391    1.366894    -21.346767    7.587875    0.000000    0.000000    0.000000    
-60.855423    83.622513    4.633024    -4.377541    1.305589    -60.734623    1.040986    4.315944    -3.119851    2.152773    5.874429    -1.132028    -2.164585    -4.128743    26.678238    -3.062483    -0.379571    27.673271    1.808633    0.073052    -4.706968    -52.003216    16.303791    -46.122589    -7.561578    3.079878    -4.753493    3.707648    2.435091    -10.199646    -2.343642    9.265478    -5.001111    72.549339    23.299746    16.762953    8.232730    2.840200    -9.310075    22.110209    3.694402    0.941204    2.360039    6.837955    -3.768478    -5.230227    2.792045    -10.710636    9.620133    -8.228072    9.355989    0.000000    0.000000    0.000000    -9.280457    -17.257757    -0.016058    28.664045    51.076519    -39.760021    2.042021    -21.391325    9.251926    0.000000    0.000000    0.000000    
